<svg xmlns="http://www.w3.org/2000/svg" xmlns:xlink="http://www.w3.org/1999/xlink" width="300" zoomAndPan="magnify" viewBox="0 0 224.87999 42.75" height="57" preserveAspectRatio="xMidYMid meet" version="1.0"><defs><g/></defs><g fill="#333333" fill-opacity="1"><g transform="translate(31.141983, 26.843024)"><g><path d="M 9.46875 0 L 5.296875 0 L 5.296875 -5.046875 L 0.125 -13 L 4.9375 -13 L 7.421875 -8.671875 L 7.5 -8.671875 L 10 -13 L 14.546875 -13 L 9.46875 -5.046875 Z M 9.46875 0 "/></g></g></g><g fill="#333333" fill-opacity="1"><g transform="translate(45.835038, 26.843024)"><g><path d="M 7.859375 -13.21875 C 10.097656 -13.21875 11.828125 -12.644531 13.046875 -11.5 C 14.273438 -10.351562 14.890625 -8.6875 14.890625 -6.5 C 14.890625 -4.3125 14.273438 -2.640625 13.046875 -1.484375 C 11.828125 -0.335938 10.097656 0.234375 7.859375 0.234375 C 5.617188 0.234375 3.890625 -0.332031 2.671875 -1.46875 C 1.453125 -2.613281 0.84375 -4.289062 0.84375 -6.5 C 0.84375 -8.695312 1.453125 -10.363281 2.671875 -11.5 C 3.890625 -12.644531 5.617188 -13.21875 7.859375 -13.21875 Z M 7.859375 -10.109375 C 6.960938 -10.109375 6.28125 -9.835938 5.8125 -9.296875 C 5.351562 -8.753906 5.125 -8.023438 5.125 -7.109375 L 5.125 -5.890625 C 5.125 -4.972656 5.351562 -4.242188 5.8125 -3.703125 C 6.28125 -3.160156 6.960938 -2.890625 7.859375 -2.890625 C 8.753906 -2.890625 9.4375 -3.160156 9.90625 -3.703125 C 10.375 -4.242188 10.609375 -4.972656 10.609375 -5.890625 L 10.609375 -7.109375 C 10.609375 -8.023438 10.375 -8.753906 9.90625 -9.296875 C 9.4375 -9.835938 8.753906 -10.109375 7.859375 -10.109375 Z M 7.859375 -10.109375 "/></g></g></g><g fill="#333333" fill-opacity="1"><g transform="translate(61.566807, 26.843024)"><g><path d="M 14.34375 -5.234375 C 14.34375 -3.453125 13.78125 -2.09375 12.65625 -1.15625 C 11.53125 -0.226562 9.9375 0.234375 7.875 0.234375 C 5.8125 0.234375 4.210938 -0.226562 3.078125 -1.15625 C 1.953125 -2.09375 1.390625 -3.453125 1.390625 -5.234375 L 1.390625 -13 L 5.578125 -13 L 5.578125 -5.296875 C 5.578125 -4.554688 5.769531 -3.96875 6.15625 -3.53125 C 6.550781 -3.101562 7.117188 -2.890625 7.859375 -2.890625 C 8.597656 -2.890625 9.164062 -3.109375 9.5625 -3.546875 C 9.957031 -3.992188 10.15625 -4.578125 10.15625 -5.296875 L 10.15625 -13 L 14.34375 -13 Z M 14.34375 -5.234375 "/></g></g></g><g fill="#333333" fill-opacity="1"><g transform="translate(77.298577, 26.843024)"><g><path d="M 13.734375 -9.015625 C 13.734375 -8.222656 13.519531 -7.503906 13.09375 -6.859375 C 12.664062 -6.210938 12.039062 -5.738281 11.21875 -5.4375 L 14.109375 0 L 9.421875 0 L 7.125 -4.734375 L 5.578125 -4.734375 L 5.578125 0 L 1.390625 0 L 1.390625 -13 L 9.34375 -13 C 10.28125 -13 11.078125 -12.816406 11.734375 -12.453125 C 12.398438 -12.097656 12.898438 -11.613281 13.234375 -11 C 13.566406 -10.394531 13.734375 -9.734375 13.734375 -9.015625 Z M 9.484375 -8.84375 C 9.484375 -9.175781 9.367188 -9.457031 9.140625 -9.6875 C 8.910156 -9.914062 8.632812 -10.03125 8.3125 -10.03125 L 5.578125 -10.03125 L 5.578125 -7.625 L 8.3125 -7.625 C 8.632812 -7.625 8.910156 -7.738281 9.140625 -7.96875 C 9.367188 -8.207031 9.484375 -8.5 9.484375 -8.84375 Z M 9.484375 -8.84375 "/></g></g></g><g fill="#333333" fill-opacity="1"><g transform="translate(91.991632, 26.843024)"><g><path d="M 6.859375 -13.21875 C 8.515625 -13.21875 9.878906 -12.878906 10.953125 -12.203125 C 12.023438 -11.535156 12.570312 -10.539062 12.59375 -9.21875 L 12.59375 -8.984375 L 8.6875 -8.984375 L 8.6875 -9.0625 C 8.6875 -9.445312 8.546875 -9.765625 8.265625 -10.015625 C 7.992188 -10.265625 7.578125 -10.390625 7.015625 -10.390625 C 6.453125 -10.390625 6.023438 -10.304688 5.734375 -10.140625 C 5.441406 -9.984375 5.296875 -9.785156 5.296875 -9.546875 C 5.296875 -9.203125 5.492188 -8.945312 5.890625 -8.78125 C 6.296875 -8.613281 6.945312 -8.445312 7.84375 -8.28125 C 8.882812 -8.0625 9.738281 -7.832031 10.40625 -7.59375 C 11.082031 -7.363281 11.671875 -6.984375 12.171875 -6.453125 C 12.679688 -5.929688 12.941406 -5.21875 12.953125 -4.3125 C 12.953125 -2.769531 12.429688 -1.625 11.390625 -0.875 C 10.359375 -0.132812 8.972656 0.234375 7.234375 0.234375 C 5.203125 0.234375 3.625 -0.101562 2.5 -0.78125 C 1.375 -1.46875 0.8125 -2.675781 0.8125 -4.40625 L 4.765625 -4.40625 C 4.765625 -3.75 4.929688 -3.3125 5.265625 -3.09375 C 5.609375 -2.875 6.140625 -2.765625 6.859375 -2.765625 C 7.390625 -2.765625 7.828125 -2.816406 8.171875 -2.921875 C 8.515625 -3.035156 8.6875 -3.269531 8.6875 -3.625 C 8.6875 -3.9375 8.492188 -4.171875 8.109375 -4.328125 C 7.722656 -4.492188 7.097656 -4.664062 6.234375 -4.84375 C 5.171875 -5.0625 4.289062 -5.289062 3.59375 -5.53125 C 2.90625 -5.78125 2.300781 -6.1875 1.78125 -6.75 C 1.269531 -7.320312 1.015625 -8.09375 1.015625 -9.0625 C 1.015625 -10.488281 1.566406 -11.535156 2.671875 -12.203125 C 3.773438 -12.878906 5.171875 -13.21875 6.859375 -13.21875 Z M 6.859375 -13.21875 "/></g></g></g><g fill="#333333" fill-opacity="1"><g transform="translate(105.627087, 26.843024)"><g><path d="M 10.203125 -13 L 15.375 -13 L 10.71875 -7.65625 L 15.46875 0 L 10.546875 0 L 7.84375 -4.765625 L 5.578125 -2.90625 L 5.578125 0 L 1.390625 0 L 1.390625 -13 L 5.578125 -13 L 5.578125 -7.4375 Z M 10.203125 -13 "/></g></g></g><g fill="#333333" fill-opacity="1"><g transform="translate(121.358856, 26.843024)"><g><path d="M 1.59375 0 L 1.59375 -13 L 5.765625 -13 L 5.765625 0 Z M 1.59375 0 "/></g></g></g><g fill="#333333" fill-opacity="1"><g transform="translate(128.705389, 26.843024)"><g><path d="M 10.6875 0 L 5.234375 -6.3125 L 5.234375 0 L 1.390625 0 L 1.390625 -13 L 5.046875 -13 L 10.5 -6.59375 L 10.5 -13 L 14.34375 -13 L 14.34375 0 Z M 10.6875 0 "/></g></g></g><g fill="#333333" fill-opacity="1"><g transform="translate(144.437159, 26.843024)"><g><path d="M 1.390625 -13 L 5.578125 -13 L 5.578125 -3.328125 L 12.234375 -3.328125 L 12.234375 0 L 1.390625 0 Z M 1.390625 -13 "/></g></g></g><g fill="#333333" fill-opacity="1"><g transform="translate(157.033899, 26.843024)"><g><path d="M 1.59375 0 L 1.59375 -13 L 5.765625 -13 L 5.765625 0 Z M 1.59375 0 "/></g></g></g><g fill="#333333" fill-opacity="1"><g transform="translate(164.380433, 26.843024)"><g><path d="M 10.6875 0 L 5.234375 -6.3125 L 5.234375 0 L 1.390625 0 L 1.390625 -13 L 5.046875 -13 L 10.5 -6.59375 L 10.5 -13 L 14.34375 -13 L 14.34375 0 Z M 10.6875 0 "/></g></g></g><g fill="#333333" fill-opacity="1"><g transform="translate(180.112202, 26.843024)"><g><path d="M 1.390625 -13 L 12.640625 -13 L 12.640625 -9.875 L 5.578125 -9.875 L 5.578125 -8.078125 L 11.625 -8.078125 L 11.625 -5.09375 L 5.578125 -5.09375 L 5.578125 -3.109375 L 12.765625 -3.109375 L 12.765625 0 L 1.390625 0 Z M 1.390625 -13 "/></g></g></g></svg>